<svg width="40" height="40" viewBox="0 0 1000 1000" fill="none" xmlns="http://www.w3.org/2000/svg">
  <defs>
    <linearGradient id="careerOSGradient" x1="0%" y1="0%" x2="100%" y2="100%">
      <stop offset="0%" stop-color="#8B5CF6" />
      <stop offset="100%" stop-color="#6366F1" />
    </linearGradient>
  </defs>
  <path d="M750 250c-100-130-300-130-400-50-130 100-130 300-50 450 80 150 300 200 450 100 50-40 70-100 70-150H680c0 30-20 70-50 90-100 70-250 30-290-90-40-120 0-280 110-340 80-40 180-20 230 50l140-110z" fill="url(#careerOSGradient)"/>
  <rect x="680" y="440" width="120" height="120" rx="30" transform="rotate(45 740 500)" fill="#10B981"/>
</svg>
